# Blender OBJ File: /home/encelo/NEW/soft_test.blend
# www.blender.org
mtllib cube.mtl
o Cube
v 1.0 1.0 -1.0
v 1.0 -1.0 -1.0
v -1.0 -1.0 -1.0
v -1.0 1.0 -1.0
v 1.0 1.0 1.0
v -1.0 1.0 1.0
v -1.0 -1.0 1.0
v 1.0 -1.0 1.0
vt 0.0 0.0 0.0
vt 0.0 0.0 0.0
vt 1.0 0.0 0.0
vt 0.0 0.0 0.0
vt 1.0 0.0 0.0
vt 1.0 0.0 0.0
vt 0.0 0.0 0.0
vt 0.0 1.0 0.0
vt 1.0 1.0 0.0
vt 0.0 0.0 0.0
vt 1.0 1.0 0.0
vt 1.0 0.0 0.0
vt 0.0 0.0 0.0
vt 0.0 1.0 0.0
vt 1.0 1.0 0.0
vt 0.0 0.0 0.0
vt 1.0 1.0 0.0
vt 1.0 0.0 0.0
vt 0.0 0.0 0.0
vt 0.0 1.0 0.0
vt 1.0 1.0 0.0
vt 0.0 0.0 0.0
vt 1.0 1.0 0.0
vt 1.0 0.0 0.0
vt 0.0 1.0 0.0
vt 1.0 1.0 0.0
vt 1.0 0.0 0.0
vt 0.0 1.0 0.0
vt 1.0 0.0 0.0
vt 0.0 0.0 0.0
vt 0.0 0.0 0.0
vt 0.0 0.0 0.0
vt 1.0 0.0 0.0
vt 0.0 0.0 0.0
vt 1.0 0.0 0.0
vt 1.0 0.0 0.0
vn 0.577350258827 0.577350258827 0.577350258827
vn 0.577350258827 0.577350258827 -0.577350258827
vn -0.577350258827 0.577350258827 -0.577350258827
vn 0.577350258827 0.577350258827 0.577350258827
vn -0.577350258827 0.577350258827 -0.577350258827
vn -0.577350258827 0.577350258827 0.577350258827
vn -0.577350258827 -0.577350258827 -0.577350258827
vn -0.577350258827 -0.577350258827 0.577350258827
vn -0.577350258827 0.577350258827 0.577350258827
vn -0.577350258827 -0.577350258827 -0.577350258827
vn -0.577350258827 0.577350258827 0.577350258827
vn -0.577350258827 0.577350258827 -0.577350258827
vn 0.577350258827 -0.577350258827 -0.577350258827
vn 0.577350258827 -0.577350258827 0.577350258827
vn -0.577350258827 -0.577350258827 0.577350258827
vn 0.577350258827 -0.577350258827 -0.577350258827
vn -0.577350258827 -0.577350258827 0.577350258827
vn -0.577350258827 -0.577350258827 -0.577350258827
vn 0.577350258827 0.577350258827 -0.577350258827
vn 0.577350258827 0.577350258827 0.577350258827
vn 0.577350258827 -0.577350258827 0.577350258827
vn 0.577350258827 0.577350258827 -0.577350258827
vn 0.577350258827 -0.577350258827 0.577350258827
vn 0.577350258827 -0.577350258827 -0.577350258827
vn 0.577350258827 0.577350258827 0.577350258827
vn -0.577350258827 0.577350258827 0.577350258827
vn -0.577350258827 -0.577350258827 0.577350258827
vn 0.577350258827 0.577350258827 0.577350258827
vn -0.577350258827 -0.577350258827 0.577350258827
vn 0.577350258827 -0.577350258827 0.577350258827
vn 0.577350258827 0.577350258827 -0.577350258827
vn 0.577350258827 -0.577350258827 -0.577350258827
vn -0.577350258827 -0.577350258827 -0.577350258827
vn 0.577350258827 0.577350258827 -0.577350258827
vn -0.577350258827 -0.577350258827 -0.577350258827
vn -0.577350258827 0.577350258827 -0.577350258827
usemtl Material
usemat tex.png
f 5/1/1 1/2/2 4/3/3 
f 5/4/4 4/5/5 6/6/6 
f 3/7/7 7/8/8 6/9/9 
f 3/10/10 6/11/11 4/12/12 
f 2/13/13 8/14/14 7/15/15 
f 2/16/16 7/17/17 3/18/18 
f 1/19/19 5/20/20 8/21/21 
f 1/22/22 8/23/23 2/24/24 
f 5/25/25 6/26/26 7/27/27 
f 5/28/28 7/29/29 8/30/30 
f 1/31/31 2/32/32 3/33/33 
f 1/34/34 3/35/35 4/36/36 
